<svg width="21" height="22" viewBox="0 0 21 22" fill="none" xmlns="http://www.w3.org/2000/svg">
<g opacity="0.5">
<path d="M10.5 2.29883C5.9768 2.29883 2.29688 5.97898 2.29688 10.5025C2.29688 15.026 5.9768 18.7061 10.5 18.7061C15.0232 18.7061 18.7031 15.026 18.7031 10.5025C18.7031 5.97898 15.0232 2.29883 10.5 2.29883ZM10.5 5.66232C10.7109 5.66232 10.9171 5.72487 11.0925 5.84206C11.2678 5.95924 11.4045 6.1258 11.4852 6.32067C11.5659 6.51555 11.5871 6.72998 11.5459 6.93686C11.5048 7.14373 11.4032 7.33376 11.2541 7.48291C11.1049 7.63206 10.9149 7.73363 10.708 7.77478C10.5012 7.81593 10.2868 7.79481 10.0919 7.71409C9.89705 7.63337 9.7305 7.49668 9.61332 7.3213C9.49614 7.14592 9.4336 6.93973 9.4336 6.7288C9.4336 6.44595 9.54595 6.17469 9.74594 5.97469C9.94593 5.77468 10.2172 5.66232 10.5 5.66232V5.66232ZM12.4688 14.9324H8.85938C8.68533 14.9324 8.51841 14.8633 8.39534 14.7402C8.27227 14.6171 8.20313 14.4502 8.20313 14.2762C8.20313 14.1021 8.27227 13.9352 8.39534 13.8121C8.51841 13.689 8.68533 13.6199 8.85938 13.6199H10.0078V10.0103H9.35157C9.17752 10.0103 9.0106 9.94111 8.88753 9.81803C8.76446 9.69495 8.69532 9.52802 8.69532 9.35396C8.69532 9.1799 8.76446 9.01297 8.88753 8.8899C9.0106 8.76682 9.17752 8.69767 9.35157 8.69767H10.6641C10.8381 8.69767 11.005 8.76682 11.1281 8.8899C11.2512 9.01297 11.3203 9.1799 11.3203 9.35396V13.6199H12.4688C12.6428 13.6199 12.8097 13.689 12.9328 13.8121C13.0559 13.9352 13.125 14.1021 13.125 14.2762C13.125 14.4502 13.0559 14.6171 12.9328 14.7402C12.8097 14.8633 12.6428 14.9324 12.4688 14.9324Z" fill="white" fill-opacity="0.5"/>
</g>
</svg>
