<svg width="21" height="21" viewBox="0 0 21 21" fill="none" xmlns="http://www.w3.org/2000/svg">
<path d="M18.8719 2.18513C18.8116 2.11896 18.7386 2.06569 18.6572 2.02853C18.5758 1.99137 18.4878 1.9711 18.3983 1.96894C18.3089 1.96679 18.2199 1.98279 18.1368 2.01598C18.0537 2.04917 17.9782 2.09886 17.9149 2.16205L17.4051 2.66939C17.3433 2.73121 17.3086 2.81504 17.3086 2.90245C17.3086 2.98986 17.3433 3.07368 17.4051 3.13551L17.8724 3.60205C17.9031 3.63282 17.9395 3.65725 17.9796 3.67391C18.0197 3.69058 18.0627 3.69916 18.1061 3.69916C18.1496 3.69916 18.1926 3.69058 18.2327 3.67391C18.2728 3.65725 18.3092 3.63282 18.3398 3.60205L18.8368 3.10749C19.0882 2.8565 19.1117 2.44766 18.8719 2.18513Z" fill="#314351" fill-opacity="0.75"/>
<path d="M16.3803 3.69126L8.97515 11.0833C8.93025 11.1281 8.89762 11.1836 8.88039 11.2445L8.53786 12.2648C8.52966 12.2924 8.52908 12.3218 8.53618 12.3498C8.54329 12.3778 8.55781 12.4033 8.57823 12.4238C8.59864 12.4442 8.62419 12.4587 8.65218 12.4658C8.68016 12.4729 8.70955 12.4723 8.73723 12.4641L9.75661 12.1216C9.81759 12.1044 9.87311 12.0717 9.91783 12.0268L17.3099 4.62081C17.3783 4.55169 17.4166 4.45838 17.4166 4.36114C17.4166 4.26391 17.3783 4.1706 17.3099 4.10148L16.9017 3.69126C16.8325 3.62225 16.7388 3.5835 16.641 3.5835C16.5433 3.5835 16.4496 3.62225 16.3803 3.69126Z" fill="#314351" fill-opacity="0.75"/>
<path d="M15.846 7.94309L10.8466 12.9523C10.6534 13.146 10.4159 13.2898 10.1547 13.3711L9.09235 13.7267C8.84023 13.7979 8.5737 13.8006 8.32021 13.7345C8.06671 13.6684 7.83543 13.5359 7.65019 13.3506C7.46494 13.1654 7.33245 12.9341 7.26634 12.6806C7.20024 12.4271 7.20293 12.1606 7.27412 11.9085L7.62973 10.8462C7.71083 10.585 7.85428 10.3476 8.04768 10.1542L13.0569 5.15402C13.1028 5.10816 13.1341 5.04971 13.1468 4.98606C13.1595 4.92241 13.153 4.85643 13.1282 4.79646C13.1034 4.73649 13.0614 4.68522 13.0075 4.64914C12.9535 4.61306 12.8901 4.59378 12.8252 4.59375H4.26563C3.65646 4.59375 3.07224 4.83574 2.64149 5.26649C2.21074 5.69724 1.96875 6.28146 1.96875 6.89063V16.7344C1.96875 17.3435 2.21074 17.9278 2.64149 18.3585C3.07224 18.7893 3.65646 19.0313 4.26563 19.0313H14.1094C14.7185 19.0313 15.3028 18.7893 15.7335 18.3585C16.1643 17.9278 16.4063 17.3435 16.4063 16.7344V8.17483C16.4062 8.10993 16.3869 8.04649 16.3509 7.99255C16.3148 7.9386 16.2635 7.89657 16.2035 7.87177C16.1436 7.84696 16.0776 7.8405 16.0139 7.85319C15.9503 7.86589 15.8918 7.89717 15.846 7.94309Z" fill="#314351" fill-opacity="0.75"/>
</svg>
