<svg width="20" height="20" viewBox="0 0 20 20" fill="none" xmlns="http://www.w3.org/2000/svg">
<path fill-rule="evenodd" clip-rule="evenodd" d="M10.4011 1.66675C11.3453 1.66675 16.2994 3.36758 16.9553 4.02341C17.5019 4.57008 17.4936 5.01175 17.4553 7.12841C17.4403 7.97675 17.4194 9.13258 17.4194 10.7326C17.4194 16.4676 10.8611 18.5192 10.5819 18.6034C10.5228 18.6217 10.4619 18.6301 10.4011 18.6301C10.3403 18.6301 10.2794 18.6217 10.2203 18.6034C9.94111 18.5192 3.38277 16.4676 3.38277 10.7326C3.38277 9.13508 3.36194 7.97925 3.34694 7.13091C3.34009 6.75249 3.33421 6.42756 3.33227 6.14597L3.33203 5.82822C3.33918 4.78435 3.43715 4.43341 3.84777 4.02341C4.50194 3.36758 9.45611 1.66675 10.4011 1.66675ZM10.4011 2.91675C9.69444 2.91675 5.23611 4.48675 4.72194 4.91591C4.57027 5.06841 4.56444 5.33341 4.59694 7.10758C4.61194 7.96258 4.63277 9.12425 4.63277 10.7326C4.63277 15.0667 9.40111 16.9909 10.4003 17.3451C11.3986 16.9892 16.1694 15.0542 16.1694 10.7326C16.1694 9.12258 16.1903 7.96008 16.2061 7.10508C16.2378 5.33258 16.2319 5.06758 16.0711 4.90758C15.5669 4.48675 11.1078 2.91675 10.4011 2.91675ZM13.5024 7.783C13.7465 8.02716 13.7465 8.423 13.5024 8.66716L10.254 11.9163C10.1607 12.0103 10.0402 12.0713 9.91077 12.0919L9.81236 12.0997C9.64652 12.0997 9.48736 12.0338 9.36986 11.9163L7.79319 10.338C7.54986 10.0938 7.54986 9.69716 7.79402 9.45383C8.03736 9.20966 8.43402 9.20966 8.67819 9.45383L9.81236 10.5897L12.619 7.783C12.8632 7.53883 13.2582 7.53883 13.5024 7.783Z" fill="#273B4A" fill-opacity="0.5"/>
</svg>
