<svg width="21" height="20" viewBox="0 0 21 20" fill="none" xmlns="http://www.w3.org/2000/svg">
<path d="M10.516 1.6665C15.2493 1.6665 18.8327 5.54733 18.8327 9.98732C18.8327 15.1367 14.6327 18.3332 10.4993 18.3332C9.13268 18.3332 7.61602 17.966 6.39935 17.2482C5.97435 16.9895 5.61602 16.7975 5.15768 16.9478L3.47435 17.4485C3.04935 17.582 2.66602 17.2482 2.79102 16.7975L3.34935 14.9281C3.44102 14.6693 3.42435 14.3939 3.29102 14.1769C2.57435 12.8583 2.16602 11.4145 2.16602 10.0124C2.16602 5.62244 5.67435 1.6665 10.516 1.6665ZM14.3243 8.95243C13.7327 8.95243 13.2577 9.42815 13.2577 10.0207C13.2577 10.6049 13.7327 11.089 14.3243 11.089C14.916 11.089 15.391 10.6049 15.391 10.0207C15.391 9.42815 14.916 8.95243 14.3243 8.95243ZM10.4827 8.95243C9.89935 8.94409 9.41602 9.42815 9.41602 10.0124C9.41602 10.6049 9.89102 11.0806 10.4827 11.089C11.0743 11.089 11.5493 10.6049 11.5493 10.0207C11.5493 9.42815 11.0743 8.95243 10.4827 8.95243ZM6.64102 8.95243C6.04935 8.95243 5.57435 9.42815 5.57435 10.0207C5.57435 10.6049 6.05768 11.089 6.64102 11.089C7.23268 11.0806 7.70768 10.6049 7.70768 10.0207C7.70768 9.42815 7.23268 8.95243 6.64102 8.95243Z" fill="#3760EF"/>
</svg>
